<?xml version="1.0" encoding="utf-8"?>
<!-- Generator: Adobe Illustrator 25.4.1, SVG Export Plug-In . SVG Version: 6.00 Build 0)  -->
<svg version="1.1" id="图层_1" xmlns="http://www.w3.org/2000/svg" xmlns:xlink="http://www.w3.org/1999/xlink" x="0px" y="0px"
	 viewBox="0 0 190 230" style="enable-background:new 0 0 190 230;" xml:space="preserve">
<g>
	<path d="M7.5,45.8c1,0,1.9-1,1.9-1.9c-0.5-2.9,1.5-5.8,3.4-8.7l1-1l1-1.5c10.4-16,19.7-15,36.4-15c3.9,0,5.8-3.9,4.4-7.8
		c-8.4-15.8-33-8.7-42.2,2.9C8,18.7,4.1,25.9,3.2,33.7C1.2,38.6,1.7,45.8,7.5,45.8z"/>
	<path d="M127.3,109.8C126.8,109.8,126.8,109.8,127.3,109.8C127.3,109.4,127.3,109.4,127.3,109.8z"/>
	<path d="M153.5,44.4c-5.8,0-9.2,9.7-10.2,19.9v1c-0.5,6.3,1.5,21.3,10.2,21.3c8.7,0,13.1-13.6,13.1-19.9
		C166.5,59.4,162.7,44.4,153.5,44.4z"/>
	<path d="M41.5,88c8.9-0.1,10.2-14.4,10.2-21.3c-2.2-32.9-22.4-22.2-23.3,0.5C27.9,74.4,32.7,88,41.5,88z"/>
	<path d="M86.1,122c50.4,37.3,70.8-30.6,31-37.3c-4.4-1-5.8,3.9-3.9,5.3c5.8,3.4,14.5,11.2,14.1,19.4c0.5,0,0.5,0,0.5,0
		c0,2.4-1,4.8-2.9,7.8c-9.7,10.2-23.8-1.5-31-6.8C87,106.4,79.8,117.1,86.1,122z"/>
	<path d="M136.5,21.1c-1.5-4.4,9.7-4.4,11.6-3.9h0.5c7.4,0.8,14.5,4.7,19.4,10.2c2.9,3.4,3.9,7.8,8.2,10.7c3.9,2.4,10.2,0,11.2-4.4
		c2.9-15-17.9-25.2-30.1-26.2c-6.3-0.5-13.1,1-18.4,4.4c-3.4,2.4-7.3,7.3-3.9,10.7C135.5,22.6,137,22.1,136.5,21.1z"/>
	<path d="M29.8,162.7c-12.1,14.1-9.7,34.4,1,48c20.8,24.2,56.3,21,83.9,13.1l2.4-0.5c8.7-1.9,23.8-5.8,23.8-17
		c0-2.4-1.9-3.9-4.4-4.4c-2.9-0.5-5.3,0.5-8.2,1.9l-0.5,0.5l-1,0.5h-0.5c0-1,0-2.4-0.5-3.4l-0.5-1c-1.5-6.3-1.9-12.6-2.4-18.9
		c-0.5-2.9-1-6.3-1.5-9.7c-0.1-2.3-0.6-3.8-0.5-6.3c8.7-1,18.4-2.4,25.2-6.8c0.5-0.5,0.5-1.5-0.5-1.5c-5.3,0-10.7,1-16,1
		c-5.3,0-10.7,0-16-1c-11.6-1.5-22.3-5.3-33.5-7.8C63.3,147.2,42.4,148.1,29.8,162.7z M89,214.6c-15,1.9-33,1-44.6-10.2
		c-2.9-2.9,36.4-16.5,38.8-1.5c5.8-10.7,26.7-9.7,28.6,7.3C104.5,211.7,96.7,213.6,89,214.6z M43.9,170c10.7-8.2,25.2-7.3,38.3-5.8
		l1.9,0.5l5.3,1h1.5c7.8,1,15,1.5,22.8,1.5c-0.5,1.9-1,5.8-1,7.3c-1.9-0.5-12.6,0-14.1,0.5l-8.7,1c-6.3,0.5-12.6,1.5-18.9,1.9
		l-2.9,0.5c-10.2,1-20.4,1.9-30.5,3.4C37.6,177.2,40,173.4,43.9,170z"/>
	<path d="M143.3,125.8C142.8,125.8,142.8,125.8,143.3,125.8C143.3,125.3,143.3,125.3,143.3,125.8z"/>
</g>
</svg>
